<svg width="146" height="80" viewBox="0 0 146 80" fill="none" xmlns="http://www.w3.org/2000/svg">
<path d="M42.3871 79.0292C42.0668 79.0292 41.7464 79.0292 41.4261 79.0292C19.9635 79.0292 2.55859 61.5024 2.55859 39.8896C2.55859 18.2768 19.9635 0.75 41.4261 0.75C41.7464 0.75 42.0668 0.75 42.3871 0.75C30.9618 9.88974 23.594 24.0832 23.594 39.8896C23.594 55.696 30.9618 69.8895 42.3871 79.0292Z" fill="#0A1628"/>
<path d="M73.8884 79.0331C73.6748 79.0331 73.3545 79.0331 73.0341 79.0331C67.3749 79.0331 62.0359 77.8503 57.2309 75.5923C43.67 69.5708 34.2734 55.8074 34.2734 39.8935C34.2734 23.9796 43.7768 10.2162 57.3377 4.19475C62.1427 2.04422 67.4816 0.753906 73.1409 0.753906C73.3545 0.753906 73.6748 0.753906 73.9952 0.753906C70.8986 3.22701 68.1223 6.13022 65.6664 9.24849C59.1529 17.7431 55.2021 28.3882 55.2021 39.8935C55.2021 51.3988 59.1529 62.0439 65.6664 70.5385C68.0155 73.6568 70.7918 76.56 73.8884 79.0331Z" fill="#D63D1F"/>
<path d="M143.508 39.8935C143.508 61.5063 126.103 79.0331 104.641 79.0331C104.427 79.0331 104.107 79.0331 103.787 79.0331C101.117 78.9256 98.4478 78.603 95.8851 78.0654C93.4292 77.5277 91.08 76.6675 88.8377 75.6998C82.4309 72.9041 76.9852 68.388 73.0344 62.6891C68.4429 56.2375 65.7734 48.3881 65.7734 39.8935C65.7734 31.3989 68.4429 23.5495 73.0344 17.0979C77.092 11.5065 82.5377 6.99044 88.8377 4.08722C91.08 3.11949 93.4292 2.25927 95.8851 1.72164C98.4478 1.18401 101.117 0.753906 103.787 0.753906C104 0.753906 104.321 0.753906 104.641 0.753906C126.103 0.753906 143.508 18.2807 143.508 39.8935Z" fill="#FF6B00"/>
</svg>
